<?xml version="1.0" encoding="UTF-8" standalone="no"?>
<!DOCTYPE svg PUBLIC "-//W3C//DTD SVG 1.1//EN"
 "http://www.w3.org/Graphics/SVG/1.1/DTD/svg11.dtd">
<!-- Generated by graphviz version 2.47.3 (20210619.1520)
 -->
<!-- Title: dependencies Pages: 1 -->
<svg width="456pt" height="323pt"
 viewBox="0.00 0.00 456.00 322.80" xmlns="http://www.w3.org/2000/svg" xmlns:xlink="http://www.w3.org/1999/xlink">
<g id="graph0" class="graph" transform="scale(1 1) rotate(0) translate(4 318.8)">
<title>dependencies</title>
<polygon fill="white" stroke="transparent" points="-4,4 -4,-318.8 452,-318.8 452,4 -4,4"/>
<text text-anchor="middle" x="224" y="-8.2" font-family="sans-serif" font-size="14.00">dependencies</text>
<g id="clust1" class="cluster">
<title>cluster_AppModule</title>
<polygon fill="none" stroke="black" stroke-dasharray="1,5" points="163,-108.8 163,-306.8 419,-306.8 419,-108.8 163,-108.8"/>
</g>
<g id="clust2" class="cluster">
<title>cluster_AppModule_declarations</title>
<polygon fill="none" stroke="black" points="289,-116.8 289,-168.8 411,-168.8 411,-116.8 289,-116.8"/>
</g>
<g id="clust4" class="cluster">
<title>cluster_AppModule_imports</title>
<polygon fill="none" stroke="black" points="171,-116.8 171,-168.8 281,-168.8 281,-116.8 171,-116.8"/>
</g>
<g id="clust6" class="cluster">
<title>cluster_AppModule_bootstrap</title>
<polygon fill="none" stroke="black" points="229,-246.8 229,-298.8 353,-298.8 353,-246.8 229,-246.8"/>
</g>
<g id="clust8" class="cluster">
<title>cluster_HomeModule</title>
<polygon fill="none" stroke="black" stroke-dasharray="1,5" points="8,-32.8 8,-100.8 440,-100.8 440,-32.8 8,-32.8"/>
</g>
<g id="clust9" class="cluster">
<title>cluster_HomeModule_declarations</title>
<polygon fill="none" stroke="black" points="160,-40.8 160,-92.8 432,-92.8 432,-40.8 160,-40.8"/>
</g>
<g id="clust13" class="cluster">
<title>cluster_HomeModule_exports</title>
<polygon fill="none" stroke="black" points="16,-40.8 16,-92.8 152,-92.8 152,-40.8 16,-40.8"/>
</g>
<!-- AppComponent -->
<g id="node1" class="node">
<title>AppComponent</title>
<polygon fill="#ffffb3" stroke="black" points="402.94,-160.8 297.06,-160.8 297.06,-124.8 402.94,-124.8 402.94,-160.8"/>
<text text-anchor="middle" x="350" y="-138.6" font-family="Times,serif" font-size="14.00">AppComponent</text>
</g>
<!-- AppModule -->
<g id="node2" class="node">
<title>AppModule</title>
<polygon fill="#8dd3c7" stroke="black" points="332.66,-225.8 329.66,-229.8 308.66,-229.8 305.66,-225.8 249.34,-225.8 249.34,-189.8 332.66,-189.8 332.66,-225.8"/>
<text text-anchor="middle" x="291" y="-203.6" font-family="Times,serif" font-size="14.00">AppModule</text>
</g>
<!-- AppComponent&#45;&gt;AppModule -->
<g id="edge1" class="edge">
<title>AppComponent&#45;&gt;AppModule</title>
<path fill="none" stroke="black" d="M315.05,-160.91C315.05,-160.91 315.05,-179.79 315.05,-179.79"/>
<polygon fill="black" stroke="black" points="311.55,-179.79 315.05,-189.79 318.55,-179.79 311.55,-179.79"/>
</g>
<!-- AppComponent  -->
<g id="node4" class="node">
<title>AppComponent </title>
<polygon fill="#80b1d3" stroke="black" points="345.44,-290.8 236.56,-290.8 236.56,-254.8 345.44,-254.8 345.44,-290.8"/>
<text text-anchor="middle" x="291" y="-268.6" font-family="Times,serif" font-size="14.00">AppComponent </text>
</g>
<!-- AppModule&#45;&gt;AppComponent  -->
<g id="edge3" class="edge">
<title>AppModule&#45;&gt;AppComponent </title>
<path fill="none" stroke="black" stroke-dasharray="1,5" d="M291,-225.91C291,-225.91 291,-244.79 291,-244.79"/>
<polygon fill="black" stroke="black" points="287.5,-244.79 291,-254.79 294.5,-244.79 287.5,-244.79"/>
</g>
<!-- HomeModule -->
<g id="node3" class="node">
<title>HomeModule</title>
<polygon fill="#8dd3c7" stroke="black" points="272.76,-160.8 269.76,-164.8 248.76,-164.8 245.76,-160.8 179.24,-160.8 179.24,-124.8 272.76,-124.8 272.76,-160.8"/>
<text text-anchor="middle" x="226" y="-138.6" font-family="Times,serif" font-size="14.00">HomeModule</text>
</g>
<!-- HomeModule&#45;&gt;AppModule -->
<g id="edge2" class="edge">
<title>HomeModule&#45;&gt;AppModule</title>
<path fill="none" stroke="black" d="M261.03,-160.91C261.03,-160.91 261.03,-179.79 261.03,-179.79"/>
<polygon fill="black" stroke="black" points="257.53,-179.79 261.03,-189.79 264.53,-179.79 257.53,-179.79"/>
</g>
<!-- HomeComponent  -->
<g id="node7" class="node">
<title>HomeComponent </title>
<polygon fill="#fb8072" stroke="black" points="143.54,-84.8 24.46,-84.8 24.46,-48.8 143.54,-48.8 143.54,-84.8"/>
<text text-anchor="middle" x="84" y="-62.6" font-family="Times,serif" font-size="14.00">HomeComponent </text>
</g>
<!-- HomeModule&#45;&gt;HomeComponent  -->
<g id="edge6" class="edge">
<title>HomeModule&#45;&gt;HomeComponent </title>
<path fill="none" stroke="black" stroke-dasharray="5,2" d="M179.11,-142.8C137.75,-142.8 84,-142.8 84,-142.8 84,-142.8 84,-94.81 84,-94.81"/>
<polygon fill="black" stroke="black" points="87.5,-94.81 84,-84.81 80.5,-94.81 87.5,-94.81"/>
</g>
<!-- HeaderComponent -->
<g id="node5" class="node">
<title>HeaderComponent</title>
<polygon fill="#ffffb3" stroke="black" points="423.74,-84.8 302.26,-84.8 302.26,-48.8 423.74,-48.8 423.74,-84.8"/>
<text text-anchor="middle" x="363" y="-62.6" font-family="Times,serif" font-size="14.00">HeaderComponent</text>
</g>
<!-- HeaderComponent&#45;&gt;HomeModule -->
<g id="edge4" class="edge">
<title>HeaderComponent&#45;&gt;HomeModule</title>
<path fill="none" stroke="black" d="M302.17,-66.8C295.2,-66.8 290.53,-66.8 290.53,-66.8 290.53,-66.8 290.53,-142.8 290.53,-142.8 290.53,-142.8 282.89,-142.8 282.89,-142.8"/>
<polygon fill="black" stroke="black" points="282.89,-139.3 272.89,-142.8 282.89,-146.3 282.89,-139.3"/>
</g>
<!-- HomeComponent -->
<g id="node6" class="node">
<title>HomeComponent</title>
<polygon fill="#ffffb3" stroke="black" points="283.55,-84.8 168.45,-84.8 168.45,-48.8 283.55,-48.8 283.55,-84.8"/>
<text text-anchor="middle" x="226" y="-62.6" font-family="Times,serif" font-size="14.00">HomeComponent</text>
</g>
<!-- HomeComponent&#45;&gt;HomeModule -->
<g id="edge5" class="edge">
<title>HomeComponent&#45;&gt;HomeModule</title>
<path fill="none" stroke="black" d="M226,-84.81C226,-84.81 226,-114.65 226,-114.65"/>
<polygon fill="black" stroke="black" points="222.5,-114.65 226,-124.65 229.5,-114.65 222.5,-114.65"/>
</g>
</g>
</svg>
